<svg width="105" height="28" viewBox="0 0 105 28" fill="none" xmlns="http://www.w3.org/2000/svg">
<g clip-path="url(#clip0_2_24)">
<path d="M104.75 0H0V28H104.75V0Z" fill="#7289DA"/>
<path d="M20.6919 8.95006C19.7419 8.50719 18.7133 8.18575 17.6418 8.00003C17.6324 7.99973 17.6231 8.0015 17.6144 8.0052C17.6058 8.0089 17.5981 8.01445 17.5918 8.02146C17.4632 8.25718 17.3132 8.56433 17.2132 8.80005C16.0768 8.62862 14.921 8.62862 13.7846 8.80005C13.6846 8.55719 13.5346 8.25718 13.3988 8.02146C13.3917 8.00718 13.3703 8.00003 13.3488 8.00003C12.2774 8.18575 11.2559 8.50719 10.2988 8.95006C10.2916 8.95006 10.2845 8.9572 10.2773 8.96435C8.33441 11.8716 7.79868 14.7002 8.06298 17.5003C8.06298 17.5146 8.07012 17.5289 8.08441 17.536C9.37015 18.4789 10.6059 19.0503 11.8274 19.4289C11.8488 19.4361 11.8702 19.4289 11.8774 19.4146C12.1631 19.0218 12.4202 18.6075 12.6417 18.1717C12.656 18.1432 12.6417 18.1146 12.6131 18.1075C12.2059 17.9503 11.8202 17.7646 11.4416 17.5503C11.4131 17.536 11.4131 17.4932 11.4345 17.4717C11.5131 17.4146 11.5916 17.3503 11.6702 17.2931C11.6845 17.2789 11.7059 17.2789 11.7202 17.286C14.1774 18.4075 16.8275 18.4075 19.2561 17.286C19.2704 17.2789 19.2919 17.2789 19.3061 17.2931C19.3847 17.3574 19.4633 17.4146 19.5419 17.4789C19.5704 17.5003 19.5704 17.5432 19.5347 17.5574C19.1633 17.7789 18.7704 17.9574 18.3633 18.1146C18.3347 18.1217 18.3275 18.1575 18.3347 18.1789C18.5633 18.6146 18.8204 19.0289 19.099 19.4218C19.1204 19.4289 19.1419 19.4361 19.1633 19.4289C20.3919 19.0503 21.6276 18.4789 22.9134 17.536C22.9277 17.5289 22.9348 17.5146 22.9348 17.5003C23.2491 14.2645 22.4134 11.4573 20.7205 8.96435C20.7133 8.9572 20.7062 8.95006 20.6919 8.95006ZM13.0131 15.7931C12.2774 15.7931 11.6631 15.1145 11.6631 14.2788C11.6631 13.443 12.2631 12.7644 13.0131 12.7644C13.7703 12.7644 14.3703 13.4502 14.3631 14.2788C14.3631 15.1145 13.7631 15.7931 13.0131 15.7931ZM17.9918 15.7931C17.2561 15.7931 16.6418 15.1145 16.6418 14.2788C16.6418 13.443 17.2418 12.7644 17.9918 12.7644C18.749 12.7644 19.349 13.4502 19.3419 14.2788C19.3419 15.1145 18.749 15.7931 17.9918 15.7931Z" fill="white"/>
<path d="M44.3057 13.8721C44.3057 14.5492 44.151 15.1562 43.8418 15.6934C43.5326 16.2272 43.1419 16.6374 42.6699 16.9238C42.3151 17.1387 41.9261 17.2884 41.5029 17.373C41.0798 17.4577 40.5785 17.5 39.999 17.5H37.4355V10.2295H40.0723C40.6647 10.2295 41.1758 10.2799 41.6055 10.3809C42.0352 10.4785 42.3965 10.6185 42.6895 10.8008C43.1908 11.1068 43.5846 11.5202 43.8711 12.041C44.1608 12.5586 44.3057 13.1689 44.3057 13.8721ZM42.3672 13.8574C42.3672 13.3789 42.2793 12.9704 42.1035 12.6318C41.931 12.29 41.6559 12.0231 41.2783 11.8311C41.0863 11.7367 40.8893 11.6732 40.6875 11.6406C40.4889 11.6048 40.1878 11.5869 39.7842 11.5869H39.3105V16.1377H39.7842C40.2301 16.1377 40.5573 16.1182 40.7656 16.0791C40.974 16.0368 41.1774 15.9619 41.376 15.8545C41.7178 15.6592 41.9684 15.3988 42.1279 15.0732C42.2874 14.7445 42.3672 14.3392 42.3672 13.8574ZM49.667 17.5H45.4092V16.2109H46.6006V11.5186H45.4092V10.2295H49.667V11.5186H48.4756V16.2109H49.667V17.5ZM57.0156 15.2148C57.0156 15.931 56.7113 16.5137 56.1025 16.9629C55.4971 17.4089 54.6735 17.6318 53.6318 17.6318C53.0296 17.6318 52.5039 17.5798 52.0547 17.4756C51.6087 17.3682 51.1904 17.2331 50.7998 17.0703V15.3271H51.0049C51.3923 15.6364 51.8252 15.874 52.3037 16.04C52.7855 16.2061 53.2477 16.2891 53.6904 16.2891C53.8044 16.2891 53.9541 16.2793 54.1396 16.2598C54.3252 16.2402 54.4766 16.2077 54.5938 16.1621C54.737 16.1035 54.8542 16.0303 54.9453 15.9424C55.0397 15.8545 55.0869 15.7243 55.0869 15.5518C55.0869 15.3923 55.0186 15.2555 54.8818 15.1416C54.7484 15.0244 54.5514 14.9349 54.291 14.873C54.0176 14.8079 53.7279 14.7477 53.4219 14.6924C53.1191 14.6338 52.8343 14.5605 52.5674 14.4727C51.9554 14.2741 51.5143 14.0055 51.2441 13.667C50.9772 13.3252 50.8438 12.902 50.8438 12.3975C50.8438 11.7204 51.1465 11.1686 51.752 10.7422C52.3607 10.3125 53.1419 10.0977 54.0957 10.0977C54.5742 10.0977 55.0462 10.1449 55.5117 10.2393C55.9805 10.3304 56.3857 10.446 56.7275 10.5859V12.2607H56.5273C56.2344 12.0264 55.8747 11.8311 55.4482 11.6748C55.0251 11.5153 54.5921 11.4355 54.1494 11.4355C53.9932 11.4355 53.8369 11.4469 53.6807 11.4697C53.5277 11.4893 53.3796 11.5283 53.2363 11.5869C53.1094 11.6357 53.0003 11.7106 52.9092 11.8115C52.818 11.9092 52.7725 12.0215 52.7725 12.1484C52.7725 12.3405 52.8457 12.4886 52.9922 12.5928C53.1387 12.6937 53.4154 12.7865 53.8223 12.8711C54.0892 12.9264 54.3447 12.9801 54.5889 13.0322C54.8363 13.0843 55.1016 13.1559 55.3848 13.2471C55.9414 13.4294 56.3516 13.6784 56.6152 13.9941C56.8822 14.3066 57.0156 14.7135 57.0156 15.2148ZM61.5908 17.6416C61.0505 17.6416 60.5508 17.5618 60.0918 17.4023C59.6361 17.2428 59.2438 17.0052 58.915 16.6895C58.5863 16.3737 58.3307 15.9798 58.1484 15.5078C57.9694 15.0358 57.8799 14.4906 57.8799 13.8721C57.8799 13.2959 57.9661 12.7734 58.1387 12.3047C58.3112 11.8359 58.5618 11.4339 58.8906 11.0986C59.2064 10.7764 59.597 10.5273 60.0625 10.3516C60.5312 10.1758 61.0423 10.0879 61.5957 10.0879C61.9017 10.0879 62.1768 10.1058 62.4209 10.1416C62.6683 10.1742 62.8962 10.2181 63.1045 10.2734C63.3226 10.3353 63.5195 10.4053 63.6953 10.4834C63.8743 10.5583 64.0306 10.6283 64.1641 10.6934V12.4561H63.9492C63.8581 12.3779 63.7425 12.2852 63.6025 12.1777C63.4658 12.0703 63.3096 11.9645 63.1338 11.8604C62.9548 11.7562 62.7611 11.6683 62.5527 11.5967C62.3444 11.5251 62.1214 11.4893 61.8838 11.4893C61.6201 11.4893 61.3695 11.5316 61.1318 11.6162C60.8942 11.6976 60.6745 11.8343 60.4727 12.0264C60.2806 12.2119 60.1243 12.4577 60.0039 12.7637C59.8867 13.0697 59.8281 13.4408 59.8281 13.877C59.8281 14.3327 59.8916 14.7135 60.0186 15.0195C60.1488 15.3255 60.3115 15.5664 60.5068 15.7422C60.7054 15.9212 60.9268 16.0498 61.1709 16.1279C61.415 16.2028 61.6559 16.2402 61.8936 16.2402C62.1214 16.2402 62.346 16.2061 62.5674 16.1377C62.792 16.0693 62.9987 15.9766 63.1875 15.8594C63.347 15.765 63.4951 15.6641 63.6318 15.5566C63.7686 15.4492 63.8809 15.3564 63.9688 15.2783H64.1641V17.0166C63.9818 17.098 63.8076 17.1745 63.6416 17.2461C63.4756 17.3177 63.3014 17.3796 63.1191 17.4316C62.8815 17.5 62.6585 17.5521 62.4502 17.5879C62.2419 17.6237 61.9554 17.6416 61.5908 17.6416ZM72.6113 13.8672C72.6113 15.026 72.2793 15.9473 71.6152 16.6309C70.9512 17.3112 70.0332 17.6514 68.8613 17.6514C67.6927 17.6514 66.7764 17.3112 66.1123 16.6309C65.4482 15.9473 65.1162 15.026 65.1162 13.8672C65.1162 12.6986 65.4482 11.7757 66.1123 11.0986C66.7764 10.4183 67.6927 10.0781 68.8613 10.0781C70.0267 10.0781 70.943 10.4183 71.6104 11.0986C72.2777 11.7757 72.6113 12.6986 72.6113 13.8672ZM70.126 15.708C70.3083 15.4867 70.4434 15.2262 70.5312 14.9268C70.6191 14.624 70.6631 14.2692 70.6631 13.8623C70.6631 13.4261 70.6126 13.055 70.5117 12.749C70.4108 12.443 70.279 12.1956 70.1162 12.0068C69.9502 11.8115 69.7581 11.6699 69.54 11.582C69.3252 11.4941 69.1006 11.4502 68.8662 11.4502C68.6286 11.4502 68.404 11.4925 68.1924 11.5771C67.984 11.6618 67.792 11.8018 67.6162 11.9971C67.4535 12.1794 67.32 12.4316 67.2158 12.7539C67.1149 13.0729 67.0645 13.444 67.0645 13.8672C67.0645 14.3001 67.1133 14.6696 67.2109 14.9756C67.3118 15.2783 67.4437 15.5257 67.6064 15.7178C67.7692 15.9098 67.9596 16.0514 68.1777 16.1426C68.3958 16.2337 68.6253 16.2793 68.8662 16.2793C69.1071 16.2793 69.3366 16.2337 69.5547 16.1426C69.7728 16.0482 69.9632 15.9033 70.126 15.708ZM78.124 12.4561C78.124 12.2738 78.0866 12.1175 78.0117 11.9873C77.9368 11.8571 77.8083 11.7546 77.626 11.6797C77.499 11.6276 77.3509 11.5967 77.1816 11.5869C77.0124 11.5739 76.8154 11.5674 76.5908 11.5674H75.9121V13.5254H76.4883C76.7878 13.5254 77.0384 13.5107 77.2402 13.4814C77.4421 13.4521 77.6113 13.3854 77.748 13.2812C77.8783 13.1803 77.9727 13.0697 78.0312 12.9492C78.0931 12.8255 78.124 12.6611 78.124 12.4561ZM81.0488 17.5H78.7588L76.7764 14.834H75.9121V17.5H74.0469V10.2295H77.1914C77.6211 10.2295 77.9906 10.2539 78.2998 10.3027C78.609 10.3516 78.8988 10.4574 79.1689 10.6201C79.4424 10.7829 79.6589 10.9945 79.8184 11.2549C79.9811 11.512 80.0625 11.8359 80.0625 12.2266C80.0625 12.7637 79.9372 13.2015 79.6865 13.54C79.4391 13.8786 79.0843 14.1602 78.6221 14.3848L81.0488 17.5ZM88.7393 13.8721C88.7393 14.5492 88.5846 15.1562 88.2754 15.6934C87.9661 16.2272 87.5755 16.6374 87.1035 16.9238C86.7487 17.1387 86.3597 17.2884 85.9365 17.373C85.5133 17.4577 85.012 17.5 84.4326 17.5H81.8691V10.2295H84.5059C85.0983 10.2295 85.6094 10.2799 86.0391 10.3809C86.4688 10.4785 86.8301 10.6185 87.123 10.8008C87.6243 11.1068 88.0182 11.5202 88.3047 12.041C88.5944 12.5586 88.7393 13.1689 88.7393 13.8721ZM86.8008 13.8574C86.8008 13.3789 86.7129 12.9704 86.5371 12.6318C86.3646 12.29 86.0895 12.0231 85.7119 11.8311C85.5199 11.7367 85.3229 11.6732 85.1211 11.6406C84.9225 11.6048 84.6214 11.5869 84.2178 11.5869H83.7441V16.1377H84.2178C84.6637 16.1377 84.9909 16.1182 85.1992 16.0791C85.4076 16.0368 85.611 15.9619 85.8096 15.8545C86.1514 15.6592 86.402 15.3988 86.5615 15.0732C86.721 14.7445 86.8008 14.3392 86.8008 13.8574Z" fill="white"/>
</g>
<defs>
<clipPath id="clip0_2_24">
<rect width="104.75" height="28" rx="5" fill="white"/>
</clipPath>
</defs>
</svg>
