<svg width="88" height="28" viewBox="0 0 88 28" fill="none" xmlns="http://www.w3.org/2000/svg">
<g clip-path="url(#clip0_2_19)">
<path d="M87.25 0H0V28H87.25V0Z" fill="#D14836"/>
<path d="M26 9.53721V18.2303C26 18.7953 25.5425 19.2528 24.9775 19.2528H22.5906V13.4578L18.5 16.5266L14.4094 13.4578V19.2535H12.0225C11.8882 19.2535 11.7552 19.227 11.6311 19.1756C11.507 19.1241 11.3942 19.0488 11.2993 18.9538C11.2043 18.8587 11.129 18.7459 11.0777 18.6218C11.0263 18.4977 10.9999 18.3647 11 18.2303V9.53721C11 8.27283 12.4431 7.55096 13.4544 8.30971L14.4094 9.02658L18.5 12.0941L22.5906 9.02533L23.5456 8.30971C24.5562 7.55158 26 8.27283 26 9.53721Z" fill="white"/>
<path d="M42.3848 17.085C42.0592 17.2119 41.6279 17.3389 41.0908 17.4658C40.5537 17.5895 40.0182 17.6514 39.4844 17.6514C38.2474 17.6514 37.279 17.3161 36.5791 16.6455C35.8792 15.9717 35.5293 15.0423 35.5293 13.8574C35.5293 12.7279 35.8825 11.818 36.5889 11.1279C37.2952 10.4346 38.2799 10.0879 39.543 10.0879C40.0215 10.0879 40.4772 10.1318 40.9102 10.2197C41.3431 10.3044 41.8249 10.4753 42.3555 10.7324V12.4365H42.1455C42.0544 12.3682 41.9209 12.2721 41.7451 12.1484C41.5693 12.0215 41.4001 11.9141 41.2373 11.8262C41.0485 11.722 40.8271 11.6325 40.5732 11.5576C40.3226 11.4827 40.0557 11.4453 39.7725 11.4453C39.4404 11.4453 39.1393 11.4941 38.8691 11.5918C38.599 11.6895 38.3564 11.8392 38.1416 12.041C37.9365 12.2363 37.7738 12.4854 37.6533 12.7881C37.5361 13.0876 37.4775 13.4342 37.4775 13.8281C37.4775 14.6322 37.6908 15.2474 38.1172 15.6738C38.5436 16.1003 39.1735 16.3135 40.0068 16.3135C40.0785 16.3135 40.1566 16.3118 40.2412 16.3086C40.3291 16.3053 40.4089 16.3005 40.4805 16.2939V14.8682H39.0303V13.4961H42.3848V17.085ZM51.6914 17.5H49.8262V12.6318L48.4785 15.791H47.1846L45.8369 12.6318V17.5H44.0693V10.2295H46.2471L47.8828 13.877L49.5137 10.2295H51.6914V17.5ZM60.2705 17.5H58.332L57.8291 16.0303H55.1338L54.6309 17.5H52.7412L55.4268 10.2295H57.585L60.2705 17.5ZM57.375 14.6973L56.4814 12.0898L55.5879 14.6973H57.375ZM65.2461 17.5H60.9883V16.2109H62.1797V11.5186H60.9883V10.2295H65.2461V11.5186H64.0547V16.2109H65.2461V17.5ZM72.0186 17.5H66.7744V10.2295H68.6494V16.0938H72.0186V17.5Z" fill="white"/>
</g>
<defs>
<clipPath id="clip0_2_19">
<rect width="87.25" height="28" rx="5" fill="white"/>
</clipPath>
</defs>
</svg>
