<svg width="124" height="28" viewBox="0 0 124 28" fill="none" xmlns="http://www.w3.org/2000/svg">
<g clip-path="url(#clip0_2_4)">
<path d="M123.25 0H0V28H123.25V0Z" fill="#E4405F"/>
<path d="M15.35 6H21.65C24.05 6 26 7.95 26 10.35V16.65C26 17.8037 25.5417 18.9101 24.7259 19.7259C23.9101 20.5417 22.8037 21 21.65 21H15.35C12.95 21 11 19.05 11 16.65V10.35C11 9.19631 11.4583 8.08987 12.2741 7.27409C13.0899 6.4583 14.1963 6 15.35 6ZM15.2 7.5C14.4839 7.5 13.7972 7.78446 13.2908 8.29081C12.7845 8.79716 12.5 9.48392 12.5 10.2V16.8C12.5 18.2925 13.7075 19.5 15.2 19.5H21.8C22.5161 19.5 23.2028 19.2155 23.7092 18.7092C24.2155 18.2028 24.5 17.5161 24.5 16.8V10.2C24.5 8.7075 23.2925 7.5 21.8 7.5H15.2ZM22.4375 8.625C22.6861 8.625 22.9246 8.72377 23.1004 8.89959C23.2762 9.0754 23.375 9.31386 23.375 9.5625C23.375 9.81114 23.2762 10.0496 23.1004 10.2254C22.9246 10.4012 22.6861 10.5 22.4375 10.5C22.1889 10.5 21.9504 10.4012 21.7746 10.2254C21.5988 10.0496 21.5 9.81114 21.5 9.5625C21.5 9.31386 21.5988 9.0754 21.7746 8.89959C21.9504 8.72377 22.1889 8.625 22.4375 8.625ZM18.5 9.75C19.4946 9.75 20.4484 10.1451 21.1517 10.8483C21.8549 11.5516 22.25 12.5054 22.25 13.5C22.25 14.4946 21.8549 15.4484 21.1517 16.1517C20.4484 16.8549 19.4946 17.25 18.5 17.25C17.5054 17.25 16.5516 16.8549 15.8483 16.1517C15.1451 15.4484 14.75 14.4946 14.75 13.5C14.75 12.5054 15.1451 11.5516 15.8483 10.8483C16.5516 10.1451 17.5054 9.75 18.5 9.75ZM18.5 11.25C17.9033 11.25 17.331 11.4871 16.909 11.909C16.4871 12.331 16.25 12.9033 16.25 13.5C16.25 14.0967 16.4871 14.669 16.909 15.091C17.331 15.5129 17.9033 15.75 18.5 15.75C19.0967 15.75 19.669 15.5129 20.091 15.091C20.5129 14.669 20.75 14.0967 20.75 13.5C20.75 12.9033 20.5129 12.331 20.091 11.909C19.669 11.4871 19.0967 11.25 18.5 11.25Z" fill="white"/>
<path d="M42.584 17.5H38.3262V16.2109H39.5176V11.5186H38.3262V10.2295H42.584V11.5186H41.3926V16.2109H42.584V17.5ZM50.7236 17.5H48.917L45.8311 12.5098V17.5H44.1123V10.2295H46.3535L49.0049 14.3945V10.2295H50.7236V17.5ZM58.3994 15.2148C58.3994 15.931 58.0951 16.5137 57.4863 16.9629C56.8809 17.4089 56.0573 17.6318 55.0156 17.6318C54.4134 17.6318 53.8877 17.5798 53.4385 17.4756C52.9925 17.3682 52.5742 17.2331 52.1836 17.0703V15.3271H52.3887C52.776 15.6364 53.209 15.874 53.6875 16.04C54.1693 16.2061 54.6315 16.2891 55.0742 16.2891C55.1882 16.2891 55.3379 16.2793 55.5234 16.2598C55.709 16.2402 55.8604 16.2077 55.9775 16.1621C56.1208 16.1035 56.238 16.0303 56.3291 15.9424C56.4235 15.8545 56.4707 15.7243 56.4707 15.5518C56.4707 15.3923 56.4023 15.2555 56.2656 15.1416C56.1322 15.0244 55.9352 14.9349 55.6748 14.873C55.4014 14.8079 55.1117 14.7477 54.8057 14.6924C54.5029 14.6338 54.2181 14.5605 53.9512 14.4727C53.3392 14.2741 52.8981 14.0055 52.6279 13.667C52.361 13.3252 52.2275 12.902 52.2275 12.3975C52.2275 11.7204 52.5303 11.1686 53.1357 10.7422C53.7445 10.3125 54.5257 10.0977 55.4795 10.0977C55.958 10.0977 56.43 10.1449 56.8955 10.2393C57.3643 10.3304 57.7695 10.446 58.1113 10.5859V12.2607H57.9111C57.6182 12.0264 57.2585 11.8311 56.832 11.6748C56.4089 11.5153 55.9759 11.4355 55.5332 11.4355C55.377 11.4355 55.2207 11.4469 55.0645 11.4697C54.9115 11.4893 54.7633 11.5283 54.6201 11.5869C54.4932 11.6357 54.3841 11.7106 54.293 11.8115C54.2018 11.9092 54.1562 12.0215 54.1562 12.1484C54.1562 12.3405 54.2295 12.4886 54.376 12.5928C54.5225 12.6937 54.7992 12.7865 55.2061 12.8711C55.473 12.9264 55.7285 12.9801 55.9727 13.0322C56.2201 13.0843 56.4854 13.1559 56.7686 13.2471C57.3252 13.4294 57.7354 13.6784 57.999 13.9941C58.266 14.3066 58.3994 14.7135 58.3994 15.2148ZM65.377 11.6357H63.1064V17.5H61.2314V11.6357H58.9609V10.2295H65.377V11.6357ZM73.2236 17.5H71.2852L70.7822 16.0303H68.0869L67.584 17.5H65.6943L68.3799 10.2295H70.5381L73.2236 17.5ZM70.3281 14.6973L69.4346 12.0898L68.541 14.6973H70.3281ZM80.6992 17.085C80.3737 17.2119 79.9424 17.3389 79.4053 17.4658C78.8682 17.5895 78.3327 17.6514 77.7988 17.6514C76.5618 17.6514 75.5934 17.3161 74.8936 16.6455C74.1937 15.9717 73.8438 15.0423 73.8438 13.8574C73.8438 12.7279 74.1969 11.818 74.9033 11.1279C75.6097 10.4346 76.5944 10.0879 77.8574 10.0879C78.3359 10.0879 78.7917 10.1318 79.2246 10.2197C79.6576 10.3044 80.1393 10.4753 80.6699 10.7324V12.4365H80.46C80.3688 12.3682 80.2354 12.2721 80.0596 12.1484C79.8838 12.0215 79.7145 11.9141 79.5518 11.8262C79.363 11.722 79.1416 11.6325 78.8877 11.5576C78.637 11.4827 78.3701 11.4453 78.0869 11.4453C77.7549 11.4453 77.4538 11.4941 77.1836 11.5918C76.9134 11.6895 76.6709 11.8392 76.4561 12.041C76.251 12.2363 76.0882 12.4854 75.9678 12.7881C75.8506 13.0876 75.792 13.4342 75.792 13.8281C75.792 14.6322 76.0052 15.2474 76.4316 15.6738C76.8581 16.1003 77.488 16.3135 78.3213 16.3135C78.3929 16.3135 78.471 16.3118 78.5557 16.3086C78.6436 16.3053 78.7233 16.3005 78.7949 16.2939V14.8682H77.3447V13.4961H80.6992V17.085ZM86.4609 12.4561C86.4609 12.2738 86.4235 12.1175 86.3486 11.9873C86.2738 11.8571 86.1452 11.7546 85.9629 11.6797C85.8359 11.6276 85.6878 11.5967 85.5186 11.5869C85.3493 11.5739 85.1523 11.5674 84.9277 11.5674H84.249V13.5254H84.8252C85.1247 13.5254 85.3753 13.5107 85.5771 13.4814C85.779 13.4521 85.9482 13.3854 86.085 13.2812C86.2152 13.1803 86.3096 13.0697 86.3682 12.9492C86.43 12.8255 86.4609 12.6611 86.4609 12.4561ZM89.3857 17.5H87.0957L85.1133 14.834H84.249V17.5H82.3838V10.2295H85.5283C85.958 10.2295 86.3275 10.2539 86.6367 10.3027C86.946 10.3516 87.2357 10.4574 87.5059 10.6201C87.7793 10.7829 87.9958 10.9945 88.1553 11.2549C88.318 11.512 88.3994 11.8359 88.3994 12.2266C88.3994 12.7637 88.2741 13.2015 88.0234 13.54C87.776 13.8786 87.4212 14.1602 86.959 14.3848L89.3857 17.5ZM96.9248 17.5H94.9863L94.4834 16.0303H91.7881L91.2852 17.5H89.3955L92.0811 10.2295H94.2393L96.9248 17.5ZM94.0293 14.6973L93.1357 12.0898L92.2422 14.6973H94.0293ZM105.592 17.5H103.727V12.6318L102.379 15.791H101.085L99.7373 12.6318V17.5H97.9697V10.2295H100.147L101.783 13.877L103.414 10.2295H105.592V17.5Z" fill="white"/>
</g>
<defs>
<clipPath id="clip0_2_4">
<rect width="123.25" height="28" rx="5" fill="white"/>
</clipPath>
</defs>
</svg>
