<svg width="111" height="28" viewBox="0 0 111 28" fill="none" xmlns="http://www.w3.org/2000/svg">
<g clip-path="url(#clip0_2_14)">
<path d="M111 0H0V28H111V0Z" fill="#0077B5"/>
<path d="M22.3333 6C22.7754 6 23.1993 6.17559 23.5118 6.48816C23.8244 6.80072 24 7.22464 24 7.66667V19.3333C24 19.7754 23.8244 20.1993 23.5118 20.5118C23.1993 20.8244 22.7754 21 22.3333 21H10.6667C10.2246 21 9.80072 20.8244 9.48816 20.5118C9.17559 20.1993 9 19.7754 9 19.3333V7.66667C9 7.22464 9.17559 6.80072 9.48816 6.48816C9.80072 6.17559 10.2246 6 10.6667 6H22.3333ZM21.9167 18.9167V14.5C21.9167 13.7795 21.6304 13.0885 21.121 12.579C20.6115 12.0696 19.9205 11.7833 19.2 11.7833C18.4917 11.7833 17.6667 12.2167 17.2667 12.8667V11.9417H14.9417V18.9167H17.2667V14.8083C17.2667 14.1667 17.7833 13.6417 18.425 13.6417C18.7344 13.6417 19.0312 13.7646 19.25 13.9834C19.4688 14.2022 19.5917 14.4989 19.5917 14.8083V18.9167H21.9167ZM12.2333 10.6333C12.6046 10.6333 12.9607 10.4858 13.2233 10.2233C13.4858 9.96073 13.6333 9.60464 13.6333 9.23333C13.6333 8.45833 13.0083 7.825 12.2333 7.825C11.8598 7.825 11.5016 7.97338 11.2375 8.23749C10.9734 8.5016 10.825 8.85982 10.825 9.23333C10.825 10.0083 11.4583 10.6333 12.2333 10.6333ZM13.3917 18.9167V11.9417H11.0833V18.9167H13.3917Z" fill="white"/>
<path d="M43.1318 17.5H37.8877V10.2295H39.7627V16.0938H43.1318V17.5ZM48.1953 17.5H43.9375V16.2109H45.1289V11.5186H43.9375V10.2295H48.1953V11.5186H47.0039V16.2109H48.1953V17.5ZM56.335 17.5H54.5283L51.4424 12.5098V17.5H49.7236V10.2295H51.9648L54.6162 14.3945V10.2295H56.335V17.5ZM64.9775 17.5H62.6777L60.5049 14.5898L60.0654 15.1221V17.5H58.1904V10.2295H60.0654V13.5205L62.6631 10.2295H64.8359L61.9941 13.5938L64.9775 17.5ZM71.1641 17.5H65.9053V10.2295H71.1641V11.6357H67.7705V12.8906H70.9199V14.2969H67.7705V16.0938H71.1641V17.5ZM79.6113 13.8721C79.6113 14.5492 79.4567 15.1562 79.1475 15.6934C78.8382 16.2272 78.4476 16.6374 77.9756 16.9238C77.6208 17.1387 77.2318 17.2884 76.8086 17.373C76.3854 17.4577 75.8841 17.5 75.3047 17.5H72.7412V10.2295H75.3779C75.9704 10.2295 76.4814 10.2799 76.9111 10.3809C77.3408 10.4785 77.7021 10.6185 77.9951 10.8008C78.4964 11.1068 78.8903 11.5202 79.1768 12.041C79.4665 12.5586 79.6113 13.1689 79.6113 13.8721ZM77.6729 13.8574C77.6729 13.3789 77.585 12.9704 77.4092 12.6318C77.2367 12.29 76.9616 12.0231 76.584 11.8311C76.3919 11.7367 76.195 11.6732 75.9932 11.6406C75.7946 11.6048 75.4935 11.5869 75.0898 11.5869H74.6162V16.1377H75.0898C75.5358 16.1377 75.863 16.1182 76.0713 16.0791C76.2796 16.0368 76.4831 15.9619 76.6816 15.8545C77.0234 15.6592 77.2741 15.3988 77.4336 15.0732C77.5931 14.7445 77.6729 14.3392 77.6729 13.8574ZM84.9727 17.5H80.7148V16.2109H81.9062V11.5186H80.7148V10.2295H84.9727V11.5186H83.7812V16.2109H84.9727V17.5ZM93.1123 17.5H91.3057L88.2197 12.5098V17.5H86.501V10.2295H88.7422L91.3936 14.3945V10.2295H93.1123V17.5Z" fill="white"/>
</g>
<defs>
<clipPath id="clip0_2_14">
<rect width="111" height="28" rx="5" fill="white"/>
</clipPath>
</defs>
</svg>
