<svg width="104" height="28" viewBox="0 0 104 28" fill="none" xmlns="http://www.w3.org/2000/svg">
<g clip-path="url(#clip0_2_9)">
<path d="M103.75 0H0V28H103.75V0Z" fill="#1DA1F2"/>
<path d="M25 9.43403C24.4479 9.68499 23.8528 9.8499 23.2361 9.92878C23.8671 9.54876 24.3547 8.94646 24.5841 8.22228C23.989 8.58078 23.3294 8.83174 22.6338 8.97514C22.0674 8.35851 21.2715 8 20.3681 8C18.6831 8 17.3064 9.37667 17.3064 11.076C17.3064 11.3198 17.3351 11.5564 17.3853 11.7787C14.8327 11.6496 12.5598 10.4235 11.0468 8.56644C10.7815 9.01816 10.631 9.54876 10.631 10.108C10.631 11.1764 11.1687 12.1228 12.0005 12.6606C11.4914 12.6606 11.0182 12.5172 10.6023 12.3021V12.3236C10.6023 13.815 11.6635 15.0626 13.0688 15.3423C12.6176 15.4657 12.144 15.4829 11.685 15.3924C11.8797 16.0037 12.2611 16.5385 12.7756 16.9218C13.29 17.3051 13.9116 17.5175 14.5531 17.5292C13.4658 18.3899 12.1181 18.8552 10.7314 18.8485C10.4876 18.8485 10.2438 18.8341 10 18.8055C11.3623 19.6802 12.9828 20.1893 14.718 20.1893C20.3681 20.1893 23.4728 15.5 23.4728 11.4345C23.4728 11.2983 23.4728 11.1692 23.4656 11.033C24.0679 10.6028 24.5841 10.0578 25 9.43403Z" fill="white"/>
<path d="M42.5635 11.6357H40.293V17.5H38.418V11.6357H36.1475V10.2295H42.5635V11.6357ZM53.7256 10.2295L51.7676 17.5H49.6924L48.3887 12.7637L47.1191 17.5H45.0439L43.0859 10.2295H45.0439L46.1621 15.2344L47.5 10.2295H49.3701L50.6445 15.2344L51.8164 10.2295H53.7256ZM58.9111 17.5H54.6533V16.2109H55.8447V11.5186H54.6533V10.2295H58.9111V11.5186H57.7197V16.2109H58.9111V17.5ZM66.1279 11.6357H63.8574V17.5H61.9824V11.6357H59.7119V10.2295H66.1279V11.6357ZM72.9443 11.6357H70.6738V17.5H68.7988V11.6357H66.5283V10.2295H72.9443V11.6357ZM79.3311 17.5H74.0723V10.2295H79.3311V11.6357H75.9375V12.8906H79.0869V14.2969H75.9375V16.0938H79.3311V17.5ZM84.9854 12.4561C84.9854 12.2738 84.9479 12.1175 84.873 11.9873C84.7982 11.8571 84.6696 11.7546 84.4873 11.6797C84.3604 11.6276 84.2122 11.5967 84.043 11.5869C83.8737 11.5739 83.6768 11.5674 83.4521 11.5674H82.7734V13.5254H83.3496C83.6491 13.5254 83.8997 13.5107 84.1016 13.4814C84.3034 13.4521 84.4727 13.3854 84.6094 13.2812C84.7396 13.1803 84.834 13.0697 84.8926 12.9492C84.9544 12.8255 84.9854 12.6611 84.9854 12.4561ZM87.9102 17.5H85.6201L83.6377 14.834H82.7734V17.5H80.9082V10.2295H84.0527C84.4824 10.2295 84.8519 10.2539 85.1611 10.3027C85.4704 10.3516 85.7601 10.4574 86.0303 10.6201C86.3037 10.7829 86.5202 10.9945 86.6797 11.2549C86.8424 11.512 86.9238 11.8359 86.9238 12.2266C86.9238 12.7637 86.7985 13.2015 86.5479 13.54C86.3005 13.8786 85.9456 14.1602 85.4834 14.3848L87.9102 17.5Z" fill="white"/>
</g>
<defs>
<clipPath id="clip0_2_9">
<rect width="103.75" height="28" rx="5" fill="white"/>
</clipPath>
</defs>
</svg>
